<svg xmlns="http://www.w3.org/2000/svg" viewBox="0 0 99.79 99.79"><defs><style>.a{fill:#3f3f3f;}</style></defs><title>open</title><path class="a" d="M0,50C0,20.66,20.55,0,49.84,0s49.92,20.55,50,49.84S79.24,99.76,50,99.79,0,79.24,0,50Zm92.44-.1a42.55,42.55,0,1,0-42.5,42.59A42.59,42.59,0,0,0,92.44,49.85Z"/><path class="a" d="M28.4,36.53H80.55c.77,0,1.51-.71,1.75-1.82.41-1.94-.49-3.74-1.65-3.74H28.51a2,2,0,0,0-1.75,1.82C26.35,34.73,27.24,36.53,28.4,36.53Z"/><path class="a" d="M19,28.37a5.45,5.45,0,1,0,5.45,5.45h0A5.46,5.46,0,0,0,19,28.37Zm0,7.39A1.95,1.95,0,1,1,21,33.82h0A1.94,1.94,0,0,1,19,35.76Z"/><path class="a" d="M28.4,52.28H80.55c.77,0,1.51-.71,1.75-1.82.41-1.94-.49-3.74-1.65-3.74H28.51a2,2,0,0,0-1.75,1.82C26.35,50.48,27.24,52.28,28.4,52.28Z"/><path class="a" d="M19,44.12a5.45,5.45,0,1,0,5.45,5.45h0A5.46,5.46,0,0,0,19,44.12Zm0,7.4a2,2,0,1,1,1.95-2h0A2,2,0,0,1,19,51.52Z"/><path class="a" d="M28.4,68H80.55c.77,0,1.51-.71,1.75-1.82.41-1.94-.49-3.74-1.65-3.74H28.51a2,2,0,0,0-1.75,1.82C26.35,66.23,27.24,68,28.4,68Z"/><path class="a" d="M19,59.88a5.45,5.45,0,1,0,5.45,5.44h0A5.45,5.45,0,0,0,19,59.88Zm0,7.39a2,2,0,1,1,1.95-2h0A2,2,0,0,1,19,67.27Z"/></svg>